<?xml version="1.0" encoding="UTF-8"?>
<svg width="1e3" height="284.92" version="1.1" viewBox="0 0 264.58 75.386" xmlns="http://www.w3.org/2000/svg">
<g transform="translate(30.193 6.3593)" fill="#f00000">
<path d="m13.226 43.897-43.42 25.128 43.42-75.199 43.42 75.199z"/>
<path class="st1" d="m157.35 7.3139c-5.7278 0-11.086 2.9563-14.227 7.7603v-21.434h-11.825v61.528h8.4994l3.5106-6.0973c3.1411 4.804 8.4994 7.5756 14.227 7.3908 12.934 0 22.358-10.532 22.358-24.759-.18506-14.227-10.162-24.39-22.542-24.39zm-1.8476 38.063c-7.0213 0-12.379-5.9126-12.379-13.303 0-7.3908 5.1735-13.488 12.379-13.488 7.206 0 12.379 6.0973 12.379 13.488 0 7.3908-5.1736 13.303-12.379 13.303z"/>
<path class="st1" d="m212.03 7.3139c-5.7278 0-11.086 2.9563-14.227 7.7603l-3.6954-6.467h-8.1299v60.419h11.825v-19.77c3.1411 4.804 8.4994 7.5756 14.227 7.3908 12.934 0 22.358-10.532 22.358-24.759 0-14.412-9.9775-24.575-22.358-24.575zm-1.8476 38.063c-7.0213 0-12.379-5.9126-12.379-13.303 0-7.3908 5.1735-13.488 12.379-13.488 7.0213 0 12.379 6.0973 12.379 13.488 0 7.3908-5.1735 13.303-12.379 13.303z"/>
<path class="st1" d="m110.97 14.705c-3.1411-4.804-8.4994-7.5756-14.227-7.3908-12.934 0-22.358 10.532-22.358 24.759 0 14.412 9.9775 24.575 22.358 24.575 5.7278 0 11.086-2.9563 14.227-7.7603l3.6954 6.467h8.3146v-46.747h-12.01zm-12.379 30.672c-7.206 0-12.379-6.0973-12.379-13.488 0-7.391 5.1736-13.488 12.379-13.488 7.2061 0 12.194 5.9126 12.194 13.488 0 7.5757-4.9887 13.488-12.194 13.488z"/>
</g>
</svg>